<?xml version="1.0" standalone="no"?>
<!DOCTYPE svg PUBLIC "-//W3C//DTD SVG 20010904//EN"
 "http://www.w3.org/TR/2001/REC-SVG-20010904/DTD/svg10.dtd">
<svg version="1.0" xmlns="http://www.w3.org/2000/svg"
 width="512.000000pt" height="512.000000pt" viewBox="0 0 512.000000 512.000000"
 preserveAspectRatio="xMidYMid meet">
<metadata>
Created by potrace 1.11, written by Peter Selinger 2001-2013
</metadata>
<g transform="translate(0.000000,512.000000) scale(0.100000,-0.100000)"
fill="#000000" stroke="none">
<path d="M1584 4763 c-26 -100 5 -258 67 -344 11 -16 18 -29 16 -29 -2 0 -53
21 -113 46 -201 84 -341 130 -484 160 -109 23 -149 26 -310 27 -118 0 -160 -4
-228 -22 -145 -38 -248 -103 -313 -198 -17 -24 -29 -46 -27 -48 1 -1 35 -15
73 -30 39 -15 84 -33 100 -41 31 -13 421 -167 660 -261 77 -30 154 -60 170
-67 17 -8 62 -26 100 -40 39 -15 84 -34 102 -42 17 -8 33 -14 36 -14 2 0 22
-8 43 -17 22 -9 41 -17 44 -17 24 -3 153 -65 186 -89 44 -34 98 -100 108 -133
l7 -22 -73 19 c-150 40 -293 31 -478 -31 -47 -16 -206 -68 -355 -115 -148 -47
-306 -98 -350 -112 -44 -14 -83 -28 -87 -32 -10 -8 86 -77 170 -123 70 -37
185 -76 257 -87 56 -8 278 -7 350 2 127 16 140 18 155 22 8 2 35 7 60 10 25 3
61 10 80 15 19 5 51 11 70 14 19 3 53 10 75 16 63 15 61 13 -21 -30 -168 -87
-289 -203 -396 -380 -57 -96 -110 -284 -111 -398 -1 -66 9 -168 18 -182 2 -3
6 -17 8 -31 7 -34 45 -144 73 -208 l24 -53 50 74 c92 136 259 286 398 356 55
28 57 28 35 -5 -45 -66 -104 -228 -127 -352 -15 -76 -15 -299 -1 -371 10 -55
36 -144 45 -153 4 -4 51 23 105 60 53 37 107 75 119 83 11 8 52 36 89 63 38
27 72 46 75 42 3 -3 7 -29 7 -58 3 -79 15 -184 32 -262 8 -38 16 -78 18 -88 2
-10 7 -27 10 -37 3 -10 7 -27 10 -37 12 -64 85 -246 122 -305 13 -21 23 -40
23 -43 0 -10 95 -141 129 -179 101 -108 226 -205 321 -248 137 -62 169 -73
283 -99 85 -19 87 -17 58 45 -69 148 -118 319 -145 506 -14 90 -16 424 -3 475
2 11 10 54 17 95 7 41 18 90 25 110 l13 35 7 -40 c23 -125 104 -381 160 -502
61 -132 160 -271 270 -376 120 -117 255 -201 421 -264 84 -33 231 -69 241 -60
5 6 -4 62 -86 535 l-38 224 66 -64 c76 -74 114 -103 191 -145 52 -29 230 -97
230 -88 0 2 15 -1 33 -6 76 -24 406 -13 433 14 5 4 -136 438 -476 1467 -21 63
-122 372 -225 685 -266 812 -263 801 -312 900 -174 350 -506 595 -908 670
-142 26 -232 34 -335 30 -146 -6 -173 -9 -276 -35 -46 -12 -97 -24 -112 -27
-52 -10 -158 -5 -219 10 -105 27 -340 154 -428 231 -38 33 -43 33 -51 -1z
m1011 -657 c109 -64 145 -217 77 -323 -51 -79 -119 -117 -206 -116 -162 2
-273 158 -221 312 48 145 215 206 350 127z"/>
</g>
</svg>
